<svg xmlns="http://www.w3.org/2000/svg" viewBox="0 0 485 140"><defs><linearGradient id="bg" x1="0" y1="0" x2="1" y2="1"><stop stop-color="#fafcfd"/><stop offset="1" stop-color="#edf3f6"/></linearGradient></defs><rect width="485" height="140" fill="url(#bg)"/><g font-family="Arial,Helvetica,sans-serif"><g transform="translate(10 10)"><rect x="0" y="0" width="150" height="25" rx="5" fill="#fff" stroke="#b8c8d2" stroke-opacity=".5"/><rect x="2" y="2" width="72" height="21" rx="4" fill="#17222b"/><text x="38" y="17" text-anchor="middle" font-size="8" fill="#fff">Üç Aylık</text><text x="111" y="17" text-anchor="middle" font-size="8" fill="#455b69">Yıllık</text></g><g transform="translate(12 44)"><line x1="0" y1="72" x2="305" y2="72" stroke="#9db1bf" stroke-opacity=".5"/><g fill="#d5e2eb"><rect x="10" y="44" width="18" height="28"/><rect x="47" y="36" width="18" height="36"/><rect x="84" y="39" width="18" height="33"/><rect x="121" y="26" width="18" height="46"/><rect x="158" y="31" width="18" height="41"/><rect x="195" y="18" width="18" height="54"/><rect x="232" y="22" width="18" height="50"/><rect x="269" y="2" width="18" height="70" fill="#9cc0dc"/></g><polyline points="19,51 56,47 93,50 130,35 167,39 204,26 241,30 278,8" fill="none" stroke="#7fa6c3" stroke-width="2"/></g><g transform="translate(336 15)"><rect width="139" height="110" rx="7" fill="#fff" fill-opacity=".76" stroke="#b9c9d2" stroke-opacity=".36"/><text x="15" y="28" font-size="12" font-weight="700" fill="#10171c">Kısa vadeli sinyaller.</text><text x="15" y="44" font-size="12" font-weight="700" fill="#10171c">Uzun vadeli gerçek.</text><text x="15" y="77" font-size="8" fill="#536873">İki perspektif.</text><text x="15" y="90" font-size="8" fill="#536873">Daha net bir tablo.</text></g></g></svg>