<svg xmlns="http://www.w3.org/2000/svg" viewBox="0 0 500 190"><defs><linearGradient id="bg" x1="0" y1="0" x2="1" y2="1"><stop stop-color="#f7fafc"/><stop offset="1" stop-color="#eaf1f5"/></linearGradient><linearGradient id="f" x1="0" y1="0" x2="0" y2="1"><stop stop-color="#bfd2df"/><stop offset="1" stop-color="#a8c0d1"/></linearGradient></defs><rect width="500" height="190" fill="url(#bg)"/><g font-family="Arial,Helvetica,sans-serif"><g transform="translate(20 12)"><g fill="url(#f)" stroke="#a4bac9" stroke-opacity=".45"><path d="M0 0h175l-12 28H12Z"/><path d="M14 35h147l-12 28H26Z"/><path d="M29 70h118l-11 28H40Z"/><path d="M43 105h91l-10 28H53Z"/><path d="M56 140h66l-9 28H65Z"/></g><g fill="#243846" font-size="8" text-anchor="middle"><text x="87" y="18">Awareness</text><text x="87" y="53">Consideration</text><text x="87" y="88">Intent</text><text x="87" y="123">Conversion</text><text x="87" y="158">Loyalty</text></g><g stroke="#9bb1c1" stroke-opacity=".6"><line x1="182" y1="14" x2="260" y2="14"/><line x1="168" y1="49" x2="260" y2="49"/><line x1="154" y1="84" x2="260" y2="84"/><line x1="140" y1="119" x2="260" y2="119"/><line x1="126" y1="154" x2="260" y2="154"/></g><g fill="#58748a" font-size="11" font-weight="700"><text x="270" y="18">+12%</text><text x="270" y="53">+11%</text><text x="270" y="88">+13%</text><text x="270" y="123">+10%</text><text x="270" y="158">+12%</text></g></g><g transform="translate(340 12)"><rect width="140" height="166" rx="7" fill="#fff" fill-opacity=".78" stroke="#b8c8d2" stroke-opacity=".36"/><text x="16" y="35" font-size="13" font-weight="700" fill="#111a20">Balanced growth</text><text x="16" y="51" font-size="13" font-weight="700" fill="#111a20">builds sustainable</text><text x="16" y="67" font-size="13" font-weight="700" fill="#111a20">results.</text><text x="16" y="104" font-size="8" fill="#536873">When all stages grow</text><text x="16" y="116" font-size="8" fill="#536873">together, growth is more</text><text x="16" y="128" font-size="8" fill="#536873">efficient and sustainable.</text></g></g></svg>